<?xml version="1.0" encoding="UTF-8"?>
<!DOCTYPE svg PUBLIC "-//W3C//DTD SVG 1.1//EN" "http://www.w3.org/Graphics/SVG/1.1/DTD/svg11.dtd">
<!-- Creator: CorelDRAW -->
<svg xmlns="http://www.w3.org/2000/svg" xml:space="preserve" width="297mm" height="210mm" version="1.1" style="shape-rendering:geometricPrecision; text-rendering:geometricPrecision; image-rendering:optimizeQuality; fill-rule:evenodd; clip-rule:evenodd"
viewBox="0 0 29700 21000"
 xmlns:xlink="http://www.w3.org/1999/xlink"
 xmlns:xodm="http://www.corel.com/coreldraw/odm/2003">
 <defs>
  <style type="text/css">
   <![CDATA[
    .str3 {stroke:white;stroke-width:79.38;stroke-miterlimit:22.9256}
    .str0 {stroke:white;stroke-width:26.46;stroke-miterlimit:22.9256}
    .str2 {stroke:white;stroke-width:79.38;stroke-linecap:round;stroke-miterlimit:22.9256}
    .str1 {stroke:white;stroke-width:26.46;stroke-miterlimit:22.9256;stroke-dasharray:79.420000 79.420000}
    .fil1 {fill:none;fill-rule:nonzero}
    .fil0 {fill:white;fill-rule:nonzero}
   ]]>
  </style>
 </defs>
 <g id="Layer_x0020_1">
  <metadata id="CorelCorpID_0Corel-Layer"/>
  <g id="_2301015906256">
   <g>
    <path class="fil0" d="M10668.09 12697.17c2.65,13.23 0,23.81 -7.94,34.4l-201.08 193.15 -34.39 240.77c-2.65,13.23 -7.94,21.17 -21.17,26.46 -10.58,2.64 -21.16,2.64 -31.74,-5.3l-105.83 -79.38 -248.71 238.13c-2.65,2.65 -7.94,5.29 -10.58,5.29 -5.3,2.65 -10.59,2.65 -15.88,2.65 -10.58,-2.65 -18.52,-7.94 -23.81,-15.88l-523.88 -854.6c-7.94,-13.23 -5.29,-26.46 0,-37.04 2.65,-5.29 7.94,-10.58 15.88,-13.23 7.94,-2.65 13.23,-2.65 18.52,0l1164.16 240.77c13.22,2.65 23.81,10.59 26.45,23.81l0 0zm-1000.11 -158.75l738.18 343.96 2.65 -2.65c2.65,-2.65 2.65,-2.65 2.65,-5.29l156.1 -148.17 -899.58 -187.85zm-103.19 -13.22l804.33 571.5 26.45 -182.56 -830.78 -388.94zm21.17 60.85l418.04 682.63 216.96 -209.02c5.29,-2.65 10.58,-7.94 18.52,-10.58l-653.52 -463.03z"/>
    <g>
     <g>
      <line class="fil1 str0" x1="10054.27" y1="14160.31" x2="10054.27" y2= "14112.69" />
      <line class="fil1 str1" x1="10054.27" y1="14020.08" x2="10054.27" y2= "13498.85" />
      <line class="fil1 str0" x1="10054.27" y1="13451.23" x2="10054.27" y2= "13403.6" />
      <g>
       <polygon class="fil0" points="10054.27,14327 10149.52,14091.52 10054.27,14147.08 9959.02,14091.52 "/>
      </g>
     </g>
    </g>
   </g>
   <g>
    <g>
     <g>
      <g>
       <path id="path2991_3_" class="fil0 str0" d="M9739.26 14377.51c-4.84,23.57 -32.62,38.44 -61.86,32.23 -29.26,-6.24 -47.63,-30.93 -41.2,-54.19 6.43,-23.26 33.92,-36.54 61.6,-30.67 27.65,5.93 46.3,29.06 41.46,52.63z"/>
       <path id="path3761_3_" class="fil1 str2" d="M9690.23 14498.8c-93.9,-3.94 -168.09,-74.11 -161.32,-146.39 6.78,-72.29 80.86,-120.16 161.06,-116.03 80.2,4.13 146.9,59.19 153.8,131.29 1.67,17.44 -0.69,34.9 -7.33,51.3"/>
       <path id="path2991-6_3_" class="fil0 str0" d="M10431.13 14409.74c-29.26,6.24 -57.04,-8.63 -61.86,-32.23 -4.84,-23.57 13.81,-46.73 41.49,-52.63 27.68,-5.9 55.17,7.41 61.6,30.67 6.4,23.26 -11.96,47.97 -41.23,54.19z"/>
       <path id="path3761-1_3_" class="fil1 str2" d="M10271.72 14418.07c-26.78,-68 17.41,-141.16 91.55,-169.92 74.11,-28.76 160.18,-6.27 199.58,55.96 39.4,62.23 7.41,146.26 -79.35,180.82 -20.98,8.36 -43.71,13.12 -66.41,13.92"/>
       <path id="path2991-9_3_" class="fil0 str0" d="M10492.3 14977.44c-4.84,-23.56 22.86,-48.33 61.67,-56.58 38.79,-8.26 75.25,2.83 81.65,26.06 6.43,23.25 -20.9,50.16 -61.28,58.75 -40.38,8.59 -77.19,-4.63 -82.04,-28.23z"/>
       <path id="path3761-2_3_" class="fil1 str2" d="M10494.69 14846.51c106.94,-35.16 224.26,-21.96 270.03,38.29 45.77,60.25 -6.96,151.36 -126.31,193.45 -119.35,42.1 -249.77,12.94 -283.13,-54.27 -8.07,-16.25 -10.24,-33.73 -6.77,-51.38"/>
       <path id="path2991-6-9_3_" class="fil0 str0" d="M9554.55 14920.86c38.79,8.26 66.49,33.02 61.67,56.58 -4.84,23.57 -41.67,36.83 -82.05,28.23 -40.38,-8.6 -67.68,-35.53 -61.28,-58.75 6.41,-23.23 42.87,-34.32 81.66,-26.06z"/>
       <path id="path3761-1-5_3_" class="fil1 str2" d="M9760.19 14973.58c13.49,72.92 -74.69,133.91 -201.4,123.56 -126.71,-10.35 -232.2,-89.8 -231.78,-164.03 0.4,-74.24 95.2,-115.04 208.02,-103.37 27.31,2.83 54.45,8.65 80.27,17.28"/>
      </g>
      <path class="fil1 str3" d="M9544.34 14963.27c342.9,-142.9 642.03,-297.18 876.61,-595.95"/>
      <path class="fil1 str3" d="M10564.27 14963.27c-342.9,-142.9 -642.03,-297.18 -876.63,-595.95"/>
      <path class="fil0 str3" d="M10305.53 14696.39c12.94,95.54 -99.25,189.42 -251.26,189.42 -152.02,0 -264.21,-93.87 -251.27,-189.42 12.94,-95.54 125.17,-159.39 251.27,-159.39 126.09,0 238.3,63.82 251.26,159.39z"/>
     </g>
    </g>
   </g>
  </g>
 </g>
</svg>
