<?xml version="1.0" encoding="UTF-8"?>
<svg version="1.1" xmlns="http://www.w3.org/2000/svg" width="311" height="398">
<path d="M0 0 C1.67542976 0.28604898 3.34385343 0.61781233 5 1 C5.0617521 22.13631923 4.97907145 43.27050068 4.81640625 64.40625 C4.8070146 65.63432499 4.79762295 66.86239998 4.7879467 68.12768936 C4.68034678 82.04735582 4.56004049 95.96686439 4.42592609 109.88629651 C4.37271646 115.42663912 4.32086693 120.96699451 4.26937366 126.50735331 C4.2564557 127.89331086 4.24345343 129.27926763 4.23036695 130.6652236 C4.05671351 149.07656134 3.98422655 167.48425316 4.0527668 185.8965683 C4.07151114 192.30952103 4.06474877 198.72249574 4.05619717 205.13546371 C4.05128881 211.05207643 4.08894403 216.96640022 4.15867043 222.8825779 C4.19098216 226.50128418 4.18215464 230.1190183 4.16157532 233.7377739 C4.16064784 235.38483477 4.17675241 237.03201665 4.21205139 238.67869949 C4.46286238 250.88361408 4.46286238 250.88361408 0.83883667 256.12664795 C-1.65435523 258.65703201 -4.1820789 260.84309945 -7 263 C-8.36028253 264.18048933 -9.71577743 265.36656442 -11.0625 266.5625 C-11.70316406 267.11035156 -12.34382812 267.65820312 -13.00390625 268.22265625 C-16.0652964 270.94855159 -18.89965164 273.89141358 -21.77734375 276.80859375 C-24.4270144 279.42101068 -27.21172803 281.83302621 -30.03515625 284.25390625 C-32.10820324 286.09615675 -34.05435802 288.02401662 -36 290 C-38.55990134 292.59982183 -41.1677954 295.06268398 -43.9375 297.4375 C-46.92801716 300.00665271 -49.73116684 302.69317256 -52.5 305.5 C-55.86114482 308.9071879 -59.33701203 312.07458174 -62.96875 315.1875 C-66.03974317 317.92777083 -68.88786876 320.87946902 -71.77734375 323.80859375 C-74.4270144 326.42101068 -77.21172803 328.83302621 -80.03515625 331.25390625 C-82.10820324 333.09615675 -84.05435802 335.02401662 -86 337 C-88.55990134 339.59982183 -91.1677954 342.06268398 -93.9375 344.4375 C-96.92801716 347.00665271 -99.73116684 349.69317256 -102.5 352.5 C-105.86114482 355.9071879 -109.33701203 359.07458174 -112.96875 362.1875 C-115.23638572 364.2109288 -117.3657695 366.33653347 -119.5 368.5 C-122.86114482 371.9071879 -126.33701203 375.07458174 -129.96875 378.1875 C-133.02878327 380.91799122 -135.86720986 383.85840583 -138.74609375 386.77734375 C-142.02674112 390.01250554 -145.48608732 393.02227018 -149 396 C-150.32 395.34 -151.64 394.68 -153 394 C-152.37708085 390.46351686 -151.44924043 387.27613615 -150.15258789 383.92993164 C-149.57812172 382.43877586 -149.57812172 382.43877586 -148.99205017 380.91749573 C-148.57315018 379.8425737 -148.15425018 378.76765167 -147.72265625 377.66015625 C-147.06572533 375.96058022 -147.06572533 375.96058022 -146.39552307 374.22666931 C-145.20340988 371.14527724 -144.00764572 368.06535239 -142.81006622 364.98608398 C-141.80749292 362.406334 -140.80791935 359.82542639 -139.80837631 357.24450111 C-131.63982722 336.15308596 -123.40696989 315.08674532 -115.14834595 294.03045654 C-111.44443936 284.58617067 -107.75110514 275.13777156 -104.0625 265.6875 C-103.73967041 264.86051605 -103.41684082 264.0335321 -103.08422852 263.18148804 C-97.17013937 248.02838291 -91.29200452 232.86141346 -85.41677856 217.69320679 C-79.27328409 201.83464222 -73.09167847 185.99138065 -66.88580322 170.15713501 C-61.05750282 155.28414514 -55.2682178 140.39638827 -49.5 125.5 C-41.47677239 104.78130428 -33.39359485 84.08655021 -25.28904724 63.39955139 C-21.59567278 53.97078388 -17.91067829 44.53875078 -14.22885132 35.10546875 C-13.54736572 33.35948519 -12.86575057 31.61355218 -12.18399048 29.86767578 C-11.24081006 27.45228093 -10.29808051 25.03671057 -9.35546875 22.62109375 C-9.06398453 21.87479706 -8.77250031 21.12850037 -8.47218323 20.35958862 C-7.12773877 16.91282884 -5.79201937 13.46326101 -4.47900391 10.00439453 C-3.80297119 8.22524658 -3.80297119 8.22524658 -3.11328125 6.41015625 C-2.53187378 4.86726929 -2.53187378 4.86726929 -1.9387207 3.29321289 C-1 1 -1 1 0 0 Z " fill="#E6E7E8" transform="translate(153,0)"/>
<path d="M0 0 C1.32 0 2.64 0 4 0 C11.61963644 20.04065815 19.18755111 40.10030326 26.71453476 60.17593384 C27.58074565 62.48616207 28.44717758 64.79630733 29.31362915 67.10644531 C37.98227288 90.22135154 46.60216896 113.35403337 55.1875 136.5 C63.39956762 158.63931698 71.64016384 180.76748706 79.9375 202.875 C80.17974178 203.5204565 80.42198357 204.16591301 80.67156601 204.8309288 C83.39835063 212.09616515 86.12644021 219.36091113 88.85498047 226.62548828 C94.57424027 241.85289575 100.28754449 257.08253887 106 272.3125 C106.28873489 273.08226795 106.57746979 273.8520359 106.87495422 274.64513016 C122.4803036 316.24994076 122.4803036 316.24994076 129.52319336 335.26708984 C132.44954988 343.16612849 135.39458628 351.05707385 138.38658142 358.93153381 C139.9158616 362.95898655 141.43718024 366.98942564 142.95791626 371.02011108 C143.68683454 372.94530519 144.41964533 374.86903058 145.15658569 376.79116821 C146.16760006 379.4287908 147.16525499 382.07110964 148.16015625 384.71484375 C148.46440521 385.49799957 148.76865417 386.2811554 149.0821228 387.08804321 C151.45866785 393.4705282 151.45866785 393.4705282 150 397 C149.01 397.33 148.02 397.66 147 398 C146.55720703 397.55197021 146.11441406 397.10394043 145.65820312 396.64233398 C143.60823317 394.57129904 141.55414567 392.50439303 139.5 390.4375 C138.80390625 389.73302734 138.1078125 389.02855469 137.390625 388.30273438 C134.07093663 384.96767708 130.73292553 381.71949121 127.15625 378.66015625 C121.30690721 373.62250323 115.97929247 368.03610086 110.56347656 362.54296875 C103.96376388 355.82951874 103.96376388 355.82951874 97 349.5 C91.19113392 344.53111252 85.92616785 338.98221783 80.56347656 333.54296875 C73.96376388 326.82951874 73.96376388 326.82951874 67 320.5 C61.19113392 315.53111252 55.92616785 309.98221783 50.56347656 304.54296875 C45.53913032 299.45346034 40.48792487 294.47904215 35.05078125 289.828125 C29.71094321 285.0680408 24.7973195 279.83027961 19.77734375 274.73828125 C15.34092019 270.26311163 10.90062421 265.88960045 6.06445312 261.84570312 C5.04254883 260.93208008 5.04254883 260.93208008 4 260 C3.15474384 259.45491256 3.15474384 259.45491256 2.2924118 258.89881325 C-1.31770264 256.14930788 -2.82102866 254.00753837 -3.62450409 249.48428726 C-3.92592664 244.87056187 -3.81188673 240.25940341 -3.71875 235.64013672 C-3.7085392 233.85634303 -3.70142438 232.07252936 -3.69715881 230.28871155 C-3.67668089 225.43535851 -3.61258815 220.58343963 -3.54076004 215.73061132 C-3.47205118 210.58769429 -3.44328225 205.44454581 -3.40991211 200.30130005 C-3.34016055 190.49274175 -3.23406449 180.68491807 -3.11529255 170.87684453 C-2.98493361 159.96114824 -2.89613709 149.0452532 -2.81059647 138.12912893 C-2.61692341 113.65324654 -2.34682694 89.1785665 -2.03446198 64.70393181 C-2.00077916 62.06113403 -1.96748541 59.41833159 -1.93426514 56.77552795 C-1.81884415 47.63746786 -1.69628136 38.49955337 -1.55929565 29.3617897 C-1.52014525 26.73463988 -1.48229774 24.10747028 -1.4458313 21.48028183 C-1.39611713 17.97519347 -1.33992225 14.47028027 -1.28125 10.96533203 C-1.26770981 9.95050877 -1.25416962 8.9356855 -1.24021912 7.89011002 C-1.22346634 6.98391796 -1.20671356 6.07772591 -1.18945312 5.14407349 C-1.17692505 4.3608629 -1.16439697 3.57765232 -1.15148926 2.77070808 C-1 1 -1 1 0 0 Z " fill="#848688" transform="translate(160,0)"/>
<path d="M0 0 C1.67542976 0.28604898 3.34385343 0.61781233 5 1 C5.0617521 22.13631923 4.97907145 43.27050068 4.81640625 64.40625 C4.8070146 65.63432499 4.79762295 66.86239998 4.7879467 68.12768936 C4.68034678 82.04735582 4.56004049 95.96686439 4.42592609 109.88629651 C4.37271646 115.42663912 4.32086693 120.96699451 4.26937366 126.50735331 C4.2564557 127.89331086 4.24345343 129.27926763 4.23036695 130.6652236 C4.05671351 149.07656134 3.98422655 167.48425316 4.0527668 185.8965683 C4.07151114 192.30952103 4.06474877 198.72249574 4.05619717 205.13546371 C4.05128881 211.05207643 4.08894403 216.96640022 4.15867043 222.8825779 C4.19098216 226.50128418 4.18215464 230.1190183 4.16157532 233.7377739 C4.16064784 235.38483477 4.17675241 237.03201665 4.21205139 238.67869949 C4.46286238 250.88361408 4.46286238 250.88361408 0.83883667 256.12664795 C-1.65435523 258.65703201 -4.1820789 260.84309945 -7 263 C-8.36028253 264.18048933 -9.71577743 265.36656442 -11.0625 266.5625 C-11.70316406 267.11035156 -12.34382812 267.65820312 -13.00390625 268.22265625 C-16.0652964 270.94855159 -18.89965164 273.89141358 -21.77734375 276.80859375 C-24.4270144 279.42101068 -27.21172803 281.83302621 -30.03515625 284.25390625 C-32.10820324 286.09615675 -34.05435802 288.02401662 -36 290 C-38.55990134 292.59982183 -41.1677954 295.06268398 -43.9375 297.4375 C-46.92801716 300.00665271 -49.73116684 302.69317256 -52.5 305.5 C-55.86114482 308.9071879 -59.33701203 312.07458174 -62.96875 315.1875 C-66.03974317 317.92777083 -68.88786876 320.87946902 -71.77734375 323.80859375 C-74.4270144 326.42101068 -77.21172803 328.83302621 -80.03515625 331.25390625 C-82.10820324 333.09615675 -84.05435802 335.02401662 -86 337 C-88.55990134 339.59982183 -91.1677954 342.06268398 -93.9375 344.4375 C-96.92801716 347.00665271 -99.73116684 349.69317256 -102.5 352.5 C-105.86114482 355.9071879 -109.33701203 359.07458174 -112.96875 362.1875 C-115.23638572 364.2109288 -117.3657695 366.33653347 -119.5 368.5 C-122.86114482 371.9071879 -126.33701203 375.07458174 -129.96875 378.1875 C-133.02878327 380.91799122 -135.86720986 383.85840583 -138.74609375 386.77734375 C-142.02674112 390.01250554 -145.48608732 393.02227018 -149 396 C-150.32 395.34 -151.64 394.68 -153 394 C-152.37708085 390.46351686 -151.44924043 387.27613615 -150.15258789 383.92993164 C-149.57812172 382.43877586 -149.57812172 382.43877586 -148.99205017 380.91749573 C-148.57315018 379.8425737 -148.15425018 378.76765167 -147.72265625 377.66015625 C-147.06572533 375.96058022 -147.06572533 375.96058022 -146.39552307 374.22666931 C-145.20340988 371.14527724 -144.00764572 368.06535239 -142.81006622 364.98608398 C-141.80749292 362.406334 -140.80791935 359.82542639 -139.80837631 357.24450111 C-131.63982722 336.15308596 -123.40696989 315.08674532 -115.14834595 294.03045654 C-111.44443936 284.58617067 -107.75110514 275.13777156 -104.0625 265.6875 C-103.73967041 264.86051605 -103.41684082 264.0335321 -103.08422852 263.18148804 C-97.17013937 248.02838291 -91.29200452 232.86141346 -85.41677856 217.69320679 C-79.27328409 201.83464222 -73.09167847 185.99138065 -66.88580322 170.15713501 C-61.05750282 155.28414514 -55.2682178 140.39638827 -49.5 125.5 C-41.47677239 104.78130428 -33.39359485 84.08655021 -25.28904724 63.39955139 C-21.59567278 53.97078388 -17.91067829 44.53875078 -14.22885132 35.10546875 C-13.54736572 33.35948519 -12.86575057 31.61355218 -12.18399048 29.86767578 C-11.24081006 27.45228093 -10.29808051 25.03671057 -9.35546875 22.62109375 C-9.06398453 21.87479706 -8.77250031 21.12850037 -8.47218323 20.35958862 C-7.12773877 16.91282884 -5.79201937 13.46326101 -4.47900391 10.00439453 C-3.80297119 8.22524658 -3.80297119 8.22524658 -3.11328125 6.41015625 C-2.53187378 4.86726929 -2.53187378 4.86726929 -1.9387207 3.29321289 C-1 1 -1 1 0 0 Z M-2 18 C-12.32452509 44.26702295 -22.61830119 70.54533041 -32.80679321 96.865448 C-38.5068501 111.58921223 -44.23847197 126.30018405 -50 141 C-56.20053554 156.82030692 -62.36424779 172.6544563 -68.5 188.5 C-74.70033106 204.51135836 -80.92580623 220.51253501 -87.1875 236.5 C-87.56053253 237.45248627 -87.93356506 238.40497253 -88.31790161 239.38632202 C-89.80326606 243.17879928 -91.28875059 246.97122947 -92.7743988 250.76359558 C-96.50122362 260.27763629 -100.22176493 269.7941229 -103.9375 279.3125 C-104.258396 280.13443848 -104.57929199 280.95637695 -104.90991211 281.80322266 C-108.8748847 291.96141689 -112.82643003 302.12475011 -116.765625 312.29296875 C-117.17093948 313.33906311 -117.57625397 314.38515747 -117.99385071 315.46295166 C-120.03092916 320.72127284 -122.0665995 325.98013371 -124.1003418 331.23974609 C-127.73544592 340.63356173 -131.3892499 350.01834299 -135.12890625 359.37109375 C-135.44280807 360.15819733 -135.7567099 360.9453009 -136.0801239 361.7562561 C-137.52136563 365.3694453 -138.96952173 368.97948929 -140.43237305 372.58398438 C-140.92919126 373.82539379 -141.42571257 375.06692209 -141.921875 376.30859375 C-142.56527832 377.89885376 -142.56527832 377.89885376 -143.22167969 379.52124023 C-144.30529461 381.96826267 -144.30529461 381.96826267 -143 384 C-142.2265625 383.21496094 -141.453125 382.42992187 -140.65625 381.62109375 C-135.55357047 376.46583468 -130.4534588 371.41070718 -124.92578125 366.70703125 C-121.88201025 364.009003 -119.0741575 361.08202267 -116.21875 358.1875 C-113.59228878 355.59803119 -110.83023542 353.21163036 -108.03125 350.8125 C-105.76361428 348.7890712 -103.6342305 346.66346653 -101.5 344.5 C-98.13885518 341.0928121 -94.66298797 337.92541826 -91.03125 334.8125 C-87.96025683 332.07222917 -85.11213124 329.12053098 -82.22265625 326.19140625 C-79.5729856 323.57898932 -76.78827197 321.16697379 -73.96484375 318.74609375 C-71.89179676 316.90384325 -69.94564198 314.97598338 -68 313 C-65.44009866 310.40017817 -62.8322046 307.93731602 -60.0625 305.5625 C-57.07198284 302.99334729 -54.26883316 300.30682744 -51.5 297.5 C-48.13885518 294.0928121 -44.66298797 290.92541826 -41.03125 287.8125 C-37.96025683 285.07222917 -35.11213124 282.12053098 -32.22265625 279.19140625 C-29.5729856 276.57898932 -26.78827197 274.16697379 -23.96484375 271.74609375 C-21.18987445 269.28006735 -18.61912598 266.62887599 -16.015625 263.984375 C-13.40084372 261.41013297 -10.65258738 259.01831818 -7.859375 256.640625 C-6.93898437 255.82851563 -6.93898437 255.82851563 -6 255 C-4.96936432 254.22863205 -4.96936432 254.22863205 -3.91790771 253.44168091 C-1.15893326 249.92924118 -1.42820307 246.57650961 -1.45410156 242.29248047 C-1.4385993 240.95791132 -1.4385993 240.95791132 -1.42278385 239.59638119 C-1.39300987 236.60313798 -1.39185031 233.61056883 -1.390625 230.6171875 C-1.3755058 228.46610833 -1.35871419 226.31504036 -1.34037781 224.16398621 C-1.29565821 218.29467024 -1.27625292 212.42550741 -1.26157761 206.55604935 C-1.24613685 201.64672915 -1.21597619 196.7375479 -1.18551159 191.82830143 C-1.07866884 174.55228703 -1.03148723 157.2762776 -1 140 C-0.99869048 139.29824363 -0.99738096 138.59648726 -0.99603176 137.87346554 C-0.92175453 97.91557583 -0.93078369 57.95789966 -1 18 C-1.33 18 -1.66 18 -2 18 Z " fill="#282829" transform="translate(153,0)"/>
<path d="M0 0 C1.32 0 2.64 0 4 0 C11.61963644 20.04065815 19.18755111 40.10030326 26.71453476 60.17593384 C27.58074565 62.48616207 28.44717758 64.79630733 29.31362915 67.10644531 C37.98227288 90.22135154 46.60216896 113.35403337 55.1875 136.5 C63.39956762 158.63931698 71.64016384 180.76748706 79.9375 202.875 C80.17974178 203.5204565 80.42198357 204.16591301 80.67156601 204.8309288 C83.39835063 212.09616515 86.12644021 219.36091113 88.85498047 226.62548828 C94.57424027 241.85289575 100.28754449 257.08253887 106 272.3125 C106.28873489 273.08226795 106.57746979 273.8520359 106.87495422 274.64513016 C122.4803036 316.24994076 122.4803036 316.24994076 129.52319336 335.26708984 C132.44954988 343.16612849 135.39458628 351.05707385 138.38658142 358.93153381 C139.9158616 362.95898655 141.43718024 366.98942564 142.95791626 371.02011108 C143.68683454 372.94530519 144.41964533 374.86903058 145.15658569 376.79116821 C146.16760006 379.4287908 147.16525499 382.07110964 148.16015625 384.71484375 C148.46440521 385.49799957 148.76865417 386.2811554 149.0821228 387.08804321 C151.45866785 393.4705282 151.45866785 393.4705282 150 397 C149.01 397.33 148.02 397.66 147 398 C146.55720703 397.55197021 146.11441406 397.10394043 145.65820312 396.64233398 C143.60823317 394.57129904 141.55414567 392.50439303 139.5 390.4375 C138.80390625 389.73302734 138.1078125 389.02855469 137.390625 388.30273438 C134.07093663 384.96767708 130.73292553 381.71949121 127.15625 378.66015625 C121.30690721 373.62250323 115.97929247 368.03610086 110.56347656 362.54296875 C103.96376388 355.82951874 103.96376388 355.82951874 97 349.5 C91.19113392 344.53111252 85.92616785 338.98221783 80.56347656 333.54296875 C73.96376388 326.82951874 73.96376388 326.82951874 67 320.5 C61.19113392 315.53111252 55.92616785 309.98221783 50.56347656 304.54296875 C45.53913032 299.45346034 40.48792487 294.47904215 35.05078125 289.828125 C29.71094321 285.0680408 24.7973195 279.83027961 19.77734375 274.73828125 C15.34092019 270.26311163 10.90062421 265.88960045 6.06445312 261.84570312 C5.04254883 260.93208008 5.04254883 260.93208008 4 260 C3.15474384 259.45491256 3.15474384 259.45491256 2.2924118 258.89881325 C-1.31770264 256.14930788 -2.82102866 254.00753837 -3.62450409 249.48428726 C-3.92592664 244.87056187 -3.81188673 240.25940341 -3.71875 235.64013672 C-3.7085392 233.85634303 -3.70142438 232.07252936 -3.69715881 230.28871155 C-3.67668089 225.43535851 -3.61258815 220.58343963 -3.54076004 215.73061132 C-3.47205118 210.58769429 -3.44328225 205.44454581 -3.40991211 200.30130005 C-3.34016055 190.49274175 -3.23406449 180.68491807 -3.11529255 170.87684453 C-2.98493361 159.96114824 -2.89613709 149.0452532 -2.81059647 138.12912893 C-2.61692341 113.65324654 -2.34682694 89.1785665 -2.03446198 64.70393181 C-2.00077916 62.06113403 -1.96748541 59.41833159 -1.93426514 56.77552795 C-1.81884415 47.63746786 -1.69628136 38.49955337 -1.55929565 29.3617897 C-1.52014525 26.73463988 -1.48229774 24.10747028 -1.4458313 21.48028183 C-1.39611713 17.97519347 -1.33992225 14.47028027 -1.28125 10.96533203 C-1.26770981 9.95050877 -1.25416962 8.9356855 -1.24021912 7.89011002 C-1.22346634 6.98391796 -1.20671356 6.07772591 -1.18945312 5.14407349 C-1.17692505 4.3608629 -1.16439697 3.57765232 -1.15148926 2.77070808 C-1 1 -1 1 0 0 Z M4 17 C3.72606829 36.49609647 3.46388254 55.99232219 3.21421242 75.48874474 C3.09845832 84.51173311 2.9797113 93.53465817 2.85266113 102.55749512 C2.58444326 121.72561661 2.36369146 140.89296477 2.2444191 160.06264877 C2.18748504 168.96917847 2.10381751 177.87413304 1.96435547 186.77978516 C1.83913857 194.78051489 1.76000411 202.7801542 1.73617923 210.78185189 C1.72227768 214.95140152 1.68707497 219.11793979 1.594944 223.28655624 C0.30463267 242.22184892 0.30463267 242.22184892 7.53939629 258.74257088 C10.20308366 261.17997277 12.94117285 263.07291063 16 265 C17.40710284 266.19364673 18.79948725 267.40567983 20.15625 268.65625 C20.77113281 269.17960938 21.38601562 269.70296875 22.01953125 270.2421875 C27.34376839 274.96784177 32.22705336 280.19444294 37.22265625 285.26171875 C41.04451783 289.11695904 44.84191852 292.93867012 48.96875 296.46875 C54.78604904 301.45080489 60.06330896 307.00710875 65.43652344 312.45703125 C72.03623612 319.17048126 72.03623612 319.17048126 79 325.5 C84.80886608 330.46888748 90.07383215 336.01778217 95.43652344 341.45703125 C102.03312715 348.16788272 102.03312715 348.16788272 108.99609375 354.4921875 C114.84639043 359.49480942 120.13523337 365.10710923 125.51196289 370.60791016 C130.69911046 375.9065055 135.7447885 380.95710325 142 385 C139.69434686 376.73701059 136.75045688 368.75213903 133.71484375 360.734375 C133.18512909 359.32749502 132.65574993 357.92048868 132.12667847 356.5133667 C130.99374786 353.50181024 129.85892162 350.49097815 128.7225647 347.48071289 C125.96935042 340.18657074 123.22664706 332.888474 120.48348808 325.59054565 C119.85140747 323.90904484 119.21921078 322.22758764 118.58690071 320.5461731 C112.21647392 303.60543666 105.90826808 286.64196082 99.61753082 269.67150116 C91.14104072 246.80690073 82.63109249 223.95525128 74.0625 201.125 C73.82025822 200.4795435 73.57801643 199.83408699 73.32843399 199.1690712 C70.60164937 191.90383485 67.87355979 184.63908887 65.14501953 177.37451172 C59.71842352 162.92631536 54.29728315 148.47607124 48.87699127 134.02550888 C48.0033985 131.6965602 47.12972514 129.36764177 46.25604248 127.03872681 C39.22629849 108.29915922 32.21611734 89.5526084 25.25073242 70.78900146 C18.58235533 52.82833601 11.80481505 34.90935818 5 17 C4.67 17 4.34 17 4 17 Z " fill="#282829" transform="translate(160,0)"/>
</svg>
