<?xml version="1.0" encoding="UTF-8"?>
<svg version="1.1" xmlns="http://www.w3.org/2000/svg" width="1213" height="570">
    <path
        d="M0 0 C0.7903892 -0.00947007 1.58077839 -0.01894015 2.39511877 -0.02869719 C5.05260345 -0.05782582 7.70996736 -0.07251753 10.36756897 -0.08708191 C12.26970568 -0.10452067 14.1718359 -0.12268075 16.07395935 -0.14151001 C22.3306939 -0.19914454 28.58746847 -0.23470177 34.84437561 -0.26750183 C35.90938144 -0.27344793 36.97438727 -0.27939403 38.071666 -0.28552032 C48.11980674 -0.34146232 58.16795276 -0.39013349 68.21620846 -0.41966724 C81.05975381 -0.45777776 93.90186364 -0.53282826 106.7448501 -0.65950567 C115.77941385 -0.74557667 124.81359291 -0.78925033 133.84855467 -0.80178469 C139.24196492 -0.81037881 144.63379808 -0.83730996 150.02676201 -0.90963173 C155.10733267 -0.97682759 160.18541103 -0.99122188 165.26633835 -0.96624184 C167.12390265 -0.96607566 168.98158339 -0.98452054 170.83873558 -1.02364731 C186.29469208 -1.33153511 186.29469208 -1.33153511 192.90623528 4.33919078 C195.20277723 6.55541403 197.28472169 8.85295962 199.31703186 11.31452942 C195.29546642 18.36578384 191.1108481 25.27884033 186.75453186 32.12702942 C182.25473836 39.20310564 177.84890594 46.32951233 173.50453186 53.50202942 C168.70933717 61.4147958 163.85733366 69.28829795 158.94203186 77.12702942 C152.29073447 87.7344405 145.71903516 98.38919494 139.16468811 109.05671692 C134.0949155 117.30725098 128.99500688 125.53904248 123.89369202 133.77009583 C121.19994631 138.11729584 118.50863269 142.46600119 115.81703186 146.81452942 C114.73370973 148.56453635 113.65037641 150.31453636 112.56703186 152.06452942 C112.03078186 152.93077942 111.49453186 153.79702942 110.94203186 154.68952942 C93.06703184 183.56452945 93.06703184 183.56452945 91.44276428 186.18830872 C90.35694474 187.94234999 89.27117016 189.6964191 88.18544006 191.45051575 C85.51550957 195.76391102 82.8448583 200.07685618 80.17250061 204.38874817 C74.92421767 212.8589343 69.68688847 221.33558135 64.47059631 229.82551575 C58.01347221 240.33456488 51.51524085 250.81598953 44.96644592 261.2681427 C38.97605413 270.83861904 33.06326388 280.45617814 27.15296936 290.07624817 C23.199481 296.5102602 19.22459662 302.93085363 15.2457428 309.34919739 C11.64357504 315.16324191 8.05746582 320.98698188 4.47718811 326.81452942 C-1.3735283 336.33738453 -7.24891008 345.84335644 -13.18296814 355.31452942 C-21.08980214 367.9361523 -28.89048699 380.62208791 -36.68296814 393.31452942 C-45.08370855 406.99770736 -53.50943361 420.66310012 -62.0342865 434.2693634 C-68.02295873 443.83692968 -73.93376153 453.45176005 -79.84312439 463.06843567 C-88.15696146 476.59782401 -96.53058711 490.08997327 -104.93296814 503.56452942 C-105.58982605 504.61978821 -106.24668396 505.675047 -106.92344666 506.76228333 C-107.52987 507.73343079 -108.13629333 508.70457825 -108.76109314 509.70515442 C-109.30153259 510.57172668 -109.84197205 511.43829895 -110.39878845 512.33113098 C-111.68296814 514.31452942 -111.68296814 514.31452942 -112.68296814 515.31452942 C-115.7039464 515.41364557 -118.70209619 515.44626664 -121.72353458 515.43757725 C-122.6887498 515.43873109 -123.65396502 515.43988494 -124.64842919 515.44107375 C-127.92583315 515.4437486 -131.20318928 515.43921115 -134.48059082 515.43478394 C-136.836715 515.43521946 -139.19283914 515.43609402 -141.54896301 515.4373731 C-146.69382399 515.43915074 -151.83867458 515.43779339 -156.98353386 515.43373489 C-164.63383293 515.42771669 -172.28412468 515.42739752 -179.93442568 515.42827688 C-192.80147604 515.42959294 -205.66852128 515.42624122 -218.53557014 515.42025948 C-231.28163745 515.41434912 -244.02770262 515.41049488 -256.77377129 515.40940666 C-257.56530656 515.40933792 -258.35684183 515.40926918 -259.17236302 515.40919836 C-263.1919197 515.40886004 -267.21147639 515.40855865 -271.23103308 515.40827148 C-299.72599921 515.40616923 -328.22096256 515.39942673 -356.71592712 515.38996887 C-384.40407801 515.38078939 -412.09222814 515.37370335 -439.78038025 515.36946106 C-441.05984185 515.36926377 -441.05984185 515.36926377 -442.36515116 515.3690625 C-450.93081289 515.36774401 -459.49647462 515.36646819 -468.06213637 515.36522364 C-485.51248345 515.3626872 -502.96283048 515.35986595 -520.41317749 515.35687256 C-521.21557438 515.35673527 -522.01797126 515.35659798 -522.8446832 515.35645653 C-576.45744602 515.34725074 -630.07020725 515.3313842 -683.68296814 515.31452942 C-683.97195984 516.07957291 -684.26095154 516.84461639 -684.55870056 517.63284302 C-685.67971816 520.30677733 -687.11918073 522.45309496 -688.80528259 524.79995728 C-694.95868224 533.49889213 -697.3680262 542.34395935 -699.68296814 552.62702942 C-700.24867374 555.02056591 -700.8217089 557.41224172 -701.39659119 559.80358887 C-701.74757733 561.27540023 -702.09176936 562.74885252 -702.42832947 564.22402954 C-703.57712339 569.20868467 -703.57712339 569.20868467 -704.68296814 570.31452942 C-707.27656136 570.40304471 -709.84336505 570.42978887 -712.43687439 570.41218567 C-713.21232101 570.41077072 -713.98776764 570.40935577 -714.78671265 570.40789795 C-717.27300308 570.40228287 -719.75920474 570.38972788 -722.24546814 570.37702942 C-723.92710747 570.37201636 -725.6087482 570.36745312 -727.29039001 570.36335754 C-731.4212838 570.35230855 -735.5521109 570.33503386 -739.68296814 570.31452942 C-740.01466003 569.11835999 -740.34635193 567.92219055 -740.68809509 566.68977356 C-741.32947212 564.37998378 -741.97482006 562.07166118 -742.62901306 559.76545715 C-743.74835976 555.81065316 -744.80606537 551.86834417 -745.67124939 547.84968567 C-750.40038956 526.80974103 -763.22531738 511.7297053 -778.64634705 497.30500793 C-781.30489268 494.70669548 -783.70984902 491.93122846 -786.12388611 489.10725403 C-788.15030605 486.77715669 -790.33254048 484.64128732 -792.55796814 482.50202942 C-796.78171293 478.3290966 -800.50255979 473.9352889 -804.20249939 469.29890442 C-807.07298872 465.84527631 -810.10379776 462.58132427 -813.18296814 459.31452942 C-817.87155629 454.33349821 -822.31953561 449.26348752 -826.58531189 443.91218567 C-827.70426646 442.52651567 -828.83238022 441.1467109 -830.01670837 439.81648254 C-834.49657201 434.77821599 -838.17604221 429.31988185 -841.87046814 423.68952942 C-842.48599548 422.76140442 -843.10152283 421.83327942 -843.73570251 420.87702942 C-845.3974119 418.36376149 -847.05537741 415.85002966 -848.68296814 413.31452942 C-849.21261169 412.49210754 -849.74225525 411.66968567 -850.28794861 410.82234192 C-858.7991747 395.52179687 -858.6686714 372.83702315 -860.12046814 355.75202942 C-860.21004791 354.72402222 -860.29962769 353.69601501 -860.391922 352.63685608 C-860.64682355 349.65401116 -860.8852991 346.67038621 -861.11656189 343.68562317 C-861.1901593 342.80308365 -861.26375671 341.92054413 -861.33958435 341.01126099 C-861.94392631 332.58732242 -861.18901743 324.51518602 -859.49546814 316.25202942 C-858.07204018 306.91143278 -859.29916068 297.64554168 -860.17515564 288.29109192 C-860.61034743 283.60134716 -860.78604857 279.02186926 -860.68296814 274.31452942 C-861.2209884 274.46986334 -861.75900866 274.62519726 -862.31333256 274.78523827 C-865.09019551 275.40548933 -867.75650167 275.60291113 -870.59713745 275.78318787 C-871.80704849 275.86173508 -873.01695953 275.94028229 -874.26353455 276.02120972 C-875.6011761 276.10425118 -876.93882276 276.18721046 -878.276474 276.27009583 C-879.68767187 276.36023325 -881.09885003 276.45067983 -882.51000977 276.54141235 C-886.34034202 276.78663058 -890.17096211 277.02703264 -894.00167537 277.26621675 C-897.20011087 277.46627466 -900.39841032 277.66846367 -903.59671599 277.87058485 C-911.14209283 278.34730412 -918.68772028 278.81990414 -926.23350525 279.29011536 C-934.01714035 279.77523444 -941.80026909 280.26794817 -949.58319563 280.76429427 C-956.26665958 281.19021623 -962.95042881 281.61108977 -969.63446146 282.02799165 C-973.62596002 282.27702471 -977.61730853 282.52804849 -981.60836601 282.78406143 C-985.36149693 283.02461876 -989.1149688 283.25887988 -992.86879539 283.48831749 C-994.24557848 283.57353037 -995.62222577 283.66097109 -996.99871445 283.75081444 C-998.87936373 283.87321096 -1000.76058375 283.98674144 -1002.64181519 284.09983826 C-1004.2199671 284.19882636 -1004.2199671 284.19882636 -1005.83000088 284.29981422 C-1008.60548092 284.31412975 -1010.99237162 283.96538837 -1013.68296814 283.31452942 C-1013.68296814 280.67452942 -1013.68296814 278.03452942 -1013.68296814 275.31452942 C-995.99099443 273.82157509 -978.2904667 272.61109807 -960.56898808 271.52924037 C-957.08255059 271.31566627 -953.59632012 271.09876794 -950.1100769 270.88204956 C-938.31394466 270.14934011 -926.51748668 269.42196189 -914.72080994 268.69807434 C-908.15419751 268.29508772 -901.58778447 267.88899466 -895.02157205 267.47954088 C-890.88854885 267.22200541 -886.75531049 266.96837588 -882.6218673 266.71767604 C-879.47152614 266.52549043 -876.3215387 266.32766031 -873.17149353 266.13069153 C-872.03041641 266.06262299 -870.88933929 265.99455444 -869.71368408 265.92442322 C-868.16085724 265.82572685 -868.16085724 265.82572685 -866.57666016 265.72503662 C-865.67443254 265.6695613 -864.77220491 265.61408598 -863.84263706 265.55692959 C-861.63658161 265.43494422 -861.63658161 265.43494422 -859.68296814 264.31452942 C-859.06616133 262.81489959 -858.51386529 261.28845536 -857.99546814 259.75202942 C-855.57597098 253.45953121 -852.0352878 248.32592121 -846.18296814 244.81452942 C-840.93368092 243.76467197 -837.22481189 243.70621792 -832.55796814 246.43952942 C-826.92138322 250.30991172 -823.40916392 255.00123392 -820.68296814 261.31452942 C-820.68296814 261.97452942 -820.68296814 262.63452942 -820.68296814 263.31452942 C-818.71640511 263.13181992 -818.71640511 263.13181992 -816.71011353 262.94541931 C-801.03457603 261.51941242 -785.3453486 260.46388261 -769.63571 259.4963088 C-766.12218392 259.27935304 -762.6088507 259.0593131 -759.0954895 258.83970642 C-753.22380586 258.47312828 -747.35199397 258.10866882 -741.48008728 257.74568176 C-734.70114447 257.32660964 -727.92238566 256.90465818 -721.1437214 256.48110569 C-713.87925595 256.02721702 -706.61467361 255.57522228 -699.35004973 255.12387705 C-697.26933953 254.99448681 -695.18865049 254.86476081 -693.10796547 254.73496628 C-689.2460967 254.49418524 -685.38409717 254.25554704 -681.52207947 254.01716614 C-680.37570007 253.94550232 -679.22932068 253.8738385 -678.04820251 253.80000305 C-676.47429497 253.70336868 -676.47429497 253.70336868 -674.86859131 253.6047821 C-673.95823529 253.54838499 -673.04787928 253.49198788 -672.10993671 253.43388176 C-669.96983077 253.32863662 -667.82566037 253.31452942 -665.68296814 253.31452942 C-665.68296814 256.28452942 -665.68296814 259.25452942 -665.68296814 262.31452942 C-683.02852555 263.84221872 -700.38242294 265.056213 -717.76141739 266.13275003 C-721.25678372 266.34981413 -724.75196913 266.56975619 -728.24717712 266.78935242 C-734.82300098 267.20207874 -741.39897647 267.61233313 -747.97501469 268.02162826 C-755.47978463 268.48885421 -762.98437439 268.95894429 -770.48895264 269.4292376 C-785.88676385 270.39411779 -801.28478993 271.3555226 -816.68296814 272.31452942 C-816.6223822 273.10512756 -816.56179626 273.89572571 -816.49937439 274.71028137 C-816.22297743 278.34888788 -815.95293564 281.98794045 -815.68296814 285.62702942 C-815.5398822 287.49198059 -815.5398822 287.49198059 -815.39390564 289.39460754 C-814.85568788 296.71821356 -814.54636753 303.9712978 -814.68296814 311.31452942 C-777.51701028 310.72273017 -743.38013034 305.76750738 -707.46183395 296.40109634 C-701.69653111 294.90939052 -695.91892934 293.46754126 -690.14083016 292.02642167 C-686.81274245 291.19631862 -683.48516361 290.36418476 -680.15771484 289.53152466 C-679.4932537 289.36525643 -678.82879255 289.19898819 -678.14419621 289.02768153 C-673.41920741 287.84408396 -668.69692351 286.65007745 -663.97592163 285.45068359 C-645.48176742 280.75304256 -626.96129652 276.18183096 -608.40953064 271.71687317 C-606.50323285 271.2579987 -606.50323285 271.2579987 -604.558424 270.78985405 C-598.19262536 269.25823877 -591.82628011 267.72891077 -585.45967102 266.20066833 C-574.1236828 263.47845863 -562.7925061 260.73633828 -551.46099663 257.99555779 C-545.41651908 256.53373631 -539.37174343 255.07314853 -533.32701111 253.61238098 C-520.88425257 250.60512361 -508.44176043 247.59676509 -495.99937439 244.58796692 C-494.13145463 244.13627556 -492.26353471 243.68458488 -490.39561462 243.2328949 C-489.02145449 242.90060285 -489.02145449 242.90060285 -487.61953354 242.56159782 C-446.79203944 232.6889326 -405.96160534 222.828499 -365.12962341 212.97441101 C-331.38983602 204.83184509 -297.65137466 196.68381549 -263.91449642 188.52920437 C-255.23054986 186.43020808 -246.54650754 184.33160836 -237.8624115 182.23323059 C-232.9093659 181.03638007 -227.95632302 179.83951828 -223.00328064 178.64265442 C-221.77708826 178.3463595 -220.55089588 178.05006458 -219.28754616 177.74479103 C-204.23604616 174.10769421 -189.18498961 170.46877231 -174.13455439 166.82727242 C-162.52970334 164.01944855 -150.92450845 161.21304965 -139.31899643 158.40795898 C-132.82594399 156.83850614 -126.33309324 155.26822924 -119.84068298 153.69612122 C-113.81832288 152.23783721 -107.79549486 150.78150245 -101.77229691 149.32668304 C-99.56425773 148.79298376 -97.35639581 148.25855049 -95.1487236 147.72333527 C-92.13570561 146.99298528 -89.122068 146.26524882 -86.10826111 145.53816223 C-84.79592499 145.21905506 -84.79592499 145.21905506 -83.45707703 144.89350128 C-79.21436303 143.87288469 -75.00293327 142.96142234 -70.68296814 142.31452942 C-70.69867859 141.56058899 -70.71438904 140.80664856 -70.73057556 140.02986145 C-70.9988563 125.15782632 -71.07285732 110.84575695 -67.68296814 96.31452942 C-67.40453064 95.07445129 -67.12609314 93.83437317 -66.83921814 92.55671692 C-60.2411061 65.76610684 -33.65830797 0.07611956 0 0 Z "
        fill="#FEFEFE" transform="translate(1013.6829681396484,-0.3145294189453125)" />
</svg>