<?xml version="1.0" encoding="UTF-8"?>
<svg version="1.1" xmlns="http://www.w3.org/2000/svg" width="1056" height="1056">
<path d="M0 0 C1.4885494 -0.00269816 2.97709743 -0.00626869 4.4656429 -0.01062447 C8.54286432 -0.0200356 12.61999585 -0.01709711 16.69722154 -0.01206893 C21.13811781 -0.00879161 25.57899528 -0.01709371 30.01988548 -0.02388728 C37.79900918 -0.03418013 45.57810799 -0.03703231 53.35723782 -0.03497505 C64.92548606 -0.03192321 76.49370679 -0.04025312 88.06194968 -0.0507243 C109.92640569 -0.07006244 131.79085233 -0.07569246 153.65531588 -0.07683842 C170.54131162 -0.07775766 187.42730368 -0.08187516 204.31329823 -0.08823967 C209.17471613 -0.09003477 214.03613404 -0.0918144 218.89755195 -0.09358943 C220.71042308 -0.09425257 220.71042308 -0.09425257 222.55991787 -0.09492911 C256.55368035 -0.10723696 290.54744155 -0.1151303 324.54120636 -0.11424255 C325.82275772 -0.1142114 327.10430909 -0.11418024 328.42469534 -0.11414814 C334.92005891 -0.11398192 341.41542247 -0.11378384 347.91078604 -0.11357872 C349.20077684 -0.11353883 350.49076765 -0.11349894 351.81984908 -0.11345784 C354.42852501 -0.11337697 357.03720095 -0.11329337 359.64587688 -0.11320706 C400.22954625 -0.11198164 440.8131822 -0.12699325 481.396842 -0.15435219 C526.9980246 -0.18508099 572.59918523 -0.2022842 618.20037884 -0.20042574 C623.06399723 -0.20027648 627.92761562 -0.20017907 632.79123402 -0.20011711 C633.98876959 -0.2000938 635.18630517 -0.20007049 636.4201297 -0.20004648 C655.68187284 -0.19998496 674.94358694 -0.21275038 694.20532145 -0.22998164 C713.56810476 -0.24694489 732.93084564 -0.24890652 752.29363228 -0.235763 C763.79192695 -0.22837848 775.2900926 -0.23201699 786.78837358 -0.25164768 C794.47664042 -0.26366289 802.164814 -0.26103946 809.8530766 -0.24670668 C814.22853949 -0.23895675 818.60375303 -0.23735398 822.97919817 -0.25362138 C860.26224346 -0.38307539 889.88716519 5.98081085 917.6456213 32.50726891 C938.22477734 53.61334502 947.3698555 81.15252246 947.27789021 110.20261955 C947.28058839 111.68745548 947.28415893 113.17229003 947.28851467 114.65712202 C947.29792551 118.72403975 947.29498741 122.79086735 947.28995913 126.85778937 C947.28668173 131.287531 947.29498399 135.7172538 947.30177748 140.14698935 C947.31207022 147.90655794 947.31492253 155.6661016 947.31286526 163.42567635 C947.30981338 174.9649 947.31814343 186.50409607 947.32861451 198.04331436 C947.34795273 219.85324841 947.35358267 241.66317306 947.35472862 263.47311467 C947.35564789 280.31762584 947.35976551 297.16213332 947.36612988 314.0066433 C947.36792498 318.85624996 947.36970461 323.70585664 947.37147963 328.55546331 C947.37192173 329.76111249 947.37236382 330.96676167 947.37281932 332.20894567 C947.38512726 366.12054307 947.3930205 400.0321392 947.39213276 433.94373894 C947.3921016 435.22219936 947.39207044 436.50065979 947.39203834 437.81786143 C947.39187213 444.29754394 947.39167405 450.77722645 947.39146893 457.25690895 C947.39140909 459.18721954 947.39140909 459.18721954 947.39134805 461.1565263 C947.39126717 463.75889913 947.39118358 466.36127195 947.39109726 468.96364477 C947.38987193 509.44662499 947.40488196 549.92957171 947.43224239 590.41254234 C947.46297387 635.90203317 947.48017423 681.39150199 947.47831595 726.88100386 C947.47816669 731.73312537 947.47806928 736.58524688 947.47800732 741.43736839 C947.47797235 743.22942117 947.47797235 743.22942117 947.47793668 745.05767703 C947.47787518 764.27087139 947.49063869 783.48403663 947.50787185 802.69722233 C947.52483845 822.01297426 947.52679411 841.32868365 947.5136532 860.64443892 C947.50627083 872.11364025 947.50990075 883.58271222 947.52953788 895.0518998 C947.54155868 902.72205019 947.53892348 910.39210714 947.52459689 918.06225329 C947.51685162 922.42654885 947.51523055 926.79059453 947.53151159 931.15487224 C947.66294781 968.88283555 941.64772112 998.75688578 914.7706213 1026.88226891 C894.05230496 1047.08334573 866.72291415 1056.60770645 838.15311718 1056.5117445 C836.66452296 1056.51413797 835.17592993 1056.51740548 833.68733931 1056.5214611 C829.60535648 1056.53005523 825.52346598 1056.52626543 821.4414818 1056.52040538 C816.99722498 1056.51622705 812.55298475 1056.52364157 808.10873199 1056.52955788 C800.32227287 1056.53831634 792.53584006 1056.53963325 784.74937725 1056.53605461 C773.17042279 1056.530747 761.59149379 1056.53684352 750.0125421 1056.54513754 C728.12916231 1056.5603816 706.24579409 1056.56208218 684.3624101 1056.55961452 C667.46396115 1056.55778213 650.565516 1056.55954032 633.66706753 1056.56383896 C631.23960053 1056.56444136 628.81213354 1056.56504256 626.38466655 1056.56564256 C622.72673493 1056.56654981 619.0688033 1056.56745848 615.41087168 1056.56837491 C581.39888726 1056.57680513 547.38690426 1056.58113967 513.37491894 1056.57696819 C512.09260068 1056.57681182 510.81028243 1056.57665544 509.48910605 1056.57649433 C502.9897598 1056.57568854 496.49041356 1056.57484277 489.99106732 1056.57398102 C488.70026939 1056.57380994 487.40947146 1056.57363885 486.07955844 1056.57346258 C483.4692511 1056.57311592 480.85894376 1056.57276739 478.24863642 1056.57241699 C437.63160717 1056.5670597 397.01459963 1056.57499015 356.39757442 1056.59345055 C310.7667735 1056.61416539 265.13598602 1056.62489423 219.50518012 1056.62087506 C214.63993279 1056.62047971 209.77468546 1056.62011817 204.90943813 1056.61977768 C203.71148637 1056.61968695 202.5135346 1056.61959622 201.27928126 1056.61950273 C183.19298695 1056.61833664 165.10670622 1056.62498602 147.02041531 1056.6355896 C126.45130638 1056.64763648 105.88222737 1056.64920646 85.31311801 1056.63679943 C73.80290028 1056.63016738 62.29275407 1056.63180992 50.78254205 1056.64538795 C43.09139635 1056.65362902 35.40030425 1056.65093931 27.70916292 1056.63941268 C23.32878956 1056.63315292 18.9485558 1056.63156412 14.56819049 1056.64327601 C10.57605845 1056.65385145 6.58418365 1056.65039378 2.59206519 1056.63617149 C1.16380552 1056.63346339 -0.26447512 1056.63567496 -1.69271493 1056.64367863 C-31.63564983 1056.79989971 -58.09827495 1045.22508143 -79.2918787 1024.31976891 C-84.51771393 1019.01460544 -89.19316804 1013.70551842 -92.9793787 1007.25726891 C-93.33338749 1006.65576012 -93.68739628 1006.05425133 -94.05213261 1005.434515 C-104.8149553 986.88025636 -109.30449192 968.76231403 -109.23664761 947.28068352 C-109.23934577 945.79243674 -109.2429163 944.30419134 -109.24727207 942.81594849 C-109.25668319 938.73956045 -109.25374472 934.66326233 -109.24871653 930.58687002 C-109.24543921 926.14686237 -109.25374133 921.70687351 -109.26053488 917.26687193 C-109.27082774 909.48927858 -109.27367991 901.71171013 -109.27162266 893.93411064 C-109.26857081 882.36808451 -109.27690076 870.80208588 -109.28737191 859.2360651 C-109.30671024 837.37548813 -109.31234008 815.51492055 -109.31348602 793.65433604 C-109.31440529 776.77073257 -109.31852288 759.88713278 -109.32488728 743.0035305 C-109.32668238 738.14268987 -109.32846201 733.28184923 -109.33023703 728.42100859 C-109.33067913 727.21256699 -109.33112122 726.00412539 -109.33157672 724.75906434 C-109.34388467 690.76887525 -109.3517779 656.77868744 -109.35089016 622.78849602 C-109.350859 621.50706987 -109.35082784 620.22564373 -109.35079574 618.90538649 C-109.35062953 612.41067088 -109.35043145 605.91595528 -109.35022633 599.42123967 C-109.35016649 597.48645027 -109.35016649 597.48645027 -109.35010545 595.5125742 C-109.35002457 592.9041632 -109.34994098 590.2957522 -109.34985466 587.68734121 C-109.34862933 547.11037569 -109.36363938 506.53344361 -109.39099979 465.95648766 C-109.42173115 420.36152141 -109.43893164 374.76657712 -109.43707335 329.17159986 C-109.43692409 324.30824439 -109.43682668 319.44488891 -109.43676472 314.58153343 C-109.43674141 313.38406528 -109.4367181 312.18659713 -109.43669408 310.95284206 C-109.43663258 291.69501574 -109.44939618 272.43721848 -109.46662925 253.17940079 C-109.48359571 233.81884059 -109.48555163 214.45832283 -109.4724106 195.09775931 C-109.46502814 183.60189667 -109.46865844 172.10616309 -109.48829528 160.61031417 C-109.50031583 152.9223921 -109.49768115 145.23456326 -109.48335429 137.54664542 C-109.47560882 133.17219965 -109.47398856 128.79800319 -109.49026899 124.42357522 C-109.62046015 86.92738895 -103.8387417 57.26526367 -76.6043787 29.56976891 C-55.74388628 8.90831565 -28.97709236 -0.09149755 0 0 Z M667.0206213 349.25726891 C665.46591371 351.01419535 663.9044959 352.76523328 662.3331213 354.50726891 C653.49509704 365.79496293 647.46717789 377.67375572 643.0206213 391.25726891 C642.70351192 392.19957359 642.38640255 393.14187828 642.0596838 394.11273766 C638.30478744 406.39979949 637.69976548 419.4991925 638.0206213 432.25726891 C637.08778316 432.38613991 637.08778316 432.38613991 636.13609982 432.51761436 C625.59044391 434.11774403 615.30724107 436.75141221 604.9581213 439.29633141 C602.85277697 439.81049574 600.74732569 440.32422231 598.64177608 440.83754539 C594.13194492 441.93775571 589.62273583 443.04046666 585.11400509 444.14517784 C574.2018972 446.81849108 563.28644967 449.47811718 552.37115383 452.13837814 C549.86738833 452.7486391 547.36366037 453.35905415 544.85996914 453.96961975 C520.69106355 459.86332256 496.50385713 465.6787259 472.30965328 471.46755791 C436.02672897 480.14971123 399.76692194 488.92350328 363.5206213 497.75726891 C322.4092509 507.77668055 281.27779188 517.70918044 240.12804317 527.56976891 C239.13733633 527.80725633 238.14662949 528.04474375 237.12590122 528.28942776 C232.37942564 529.42691436 227.63245544 530.56223817 222.88423824 531.69243431 C215.36166441 533.4846263 207.84462857 535.2862729 200.35314083 537.20477867 C188.36004705 540.25839815 177.01827535 542.21906366 164.6456213 542.56976891 C162.41897756 542.65619115 160.19274628 542.74953809 157.96651363 542.84593773 C156.00664871 542.92745717 154.04609973 542.99203585 152.08556271 543.05536461 C148.98037504 543.13002649 148.98037504 543.13002649 146.0206213 544.25726891 C145.84889771 541.84087262 145.68322048 539.4242838 145.5206213 537.00726891 C145.47292599 536.34469078 145.42523067 535.68211266 145.37609005 534.99945641 C145.0888049 530.64913837 144.99650558 526.32558044 145.00694942 521.96527672 C145.0089233 520.89368309 145.01089718 519.82208946 145.01293087 518.7180233 C145.01673763 517.49994987 145.01673763 517.49994987 145.0206213 516.25726891 C146.21665478 516.18432106 147.41268826 516.11137321 148.64496517 516.03621483 C159.90214592 515.34909325 171.15905888 514.65772579 182.41572189 513.96217251 C188.20324484 513.60469712 193.99085253 513.24873195 199.77867794 512.89618492 C205.36151271 512.55606903 210.94409297 512.21202959 216.52651691 511.86523819 C218.65913093 511.73345407 220.79183364 511.60309747 222.92462254 511.4741745 C225.90584233 511.2937237 228.88670983 511.10825529 231.86754513 510.92157555 C232.7544302 510.86906639 233.64131527 510.81655724 234.55507565 510.76245689 C235.36695843 510.71059731 236.17884121 510.65873772 237.0153265 510.60530663 C237.72049813 510.56198236 238.42566977 510.51865808 239.15221024 510.47402096 C241.24675349 510.29566857 241.24675349 510.29566857 244.0206213 509.25726891 C244.0206213 507.93726891 244.0206213 506.61726891 244.0206213 505.25726891 C239.96688367 505.46178479 235.91352629 505.67283809 231.86025143 505.88626671 C229.48739889 506.00898712 227.11427466 506.12500859 224.74108028 506.24091148 C214.76307979 506.7459349 204.80813873 507.41354938 194.85195065 508.240942 C189.78151867 508.66163443 184.70872234 509.05012122 179.63530827 509.4329834 C175.99446159 509.71014951 172.3568477 510.00557432 168.72081661 510.34039879 C165.91092158 510.59900574 163.10119822 510.83374802 160.28696346 511.03987694 C157.69264785 511.22990329 155.10055374 511.45436004 152.51270199 511.71819115 C149.11879608 511.93528506 146.33092002 512.04317771 143.0206213 511.25726891 C140.18545079 508.59964937 138.72737317 505.70072245 137.0206213 502.25726891 C134.0200822 499.57257603 131.94153698 499.02589051 128.0206213 499.19476891 C124.56288879 499.79497908 123.89183747 500.37765379 121.1456213 502.94476891 C119.15104308 506.05396437 117.95248524 508.69924296 117.0206213 512.25726891 C111.8930408 513.23178099 106.81772639 513.60661333 101.61876583 513.92157555 C100.69130047 513.980243 99.76383511 514.03891045 98.80826473 514.0993557 C95.75683048 514.2916468 92.70514348 514.47956012 89.6534338 514.66742516 C87.5320688 514.80024724 85.41072095 514.93334331 83.28938961 515.06670189 C77.71650886 515.41630644 72.14340346 515.7621944 66.57024288 516.10730553 C60.87908266 516.46038487 55.18814306 516.81698332 49.4971838 517.17328453 C38.3385426 517.87138784 27.17966086 518.56556449 16.0206213 519.25726891 C16.0206213 520.90726891 16.0206213 522.55726891 16.0206213 524.25726891 C28.59903852 523.49664775 41.17720353 522.73199525 53.75506115 521.96217251 C59.5952528 521.60485356 65.43552268 521.24893212 71.27599239 520.89618492 C76.91068445 520.55581481 82.54514311 520.21179932 88.17945766 519.86523819 C90.33078992 519.7335583 92.48220346 519.60319975 94.63369656 519.4741745 C97.64343021 519.29345561 100.65284248 519.10807213 103.66222286 518.92157555 C104.5548634 518.86906639 105.44750393 518.81655724 106.36719418 518.76245689 C107.18886578 518.71059731 108.01053738 518.65873772 108.85710812 518.60530663 C109.5687323 518.56198236 110.28035648 518.51865808 111.01354504 518.47402096 C113.08748471 518.25004806 115.01131675 517.80960594 117.0206213 517.25726891 C117.04570959 521.30999348 117.06366096 525.36268676 117.07555294 529.41547203 C117.08052081 530.78852694 117.0872974 532.16157673 117.09606075 533.53461266 C117.13723048 540.16051657 117.14368357 546.70284668 116.4424963 553.29633141 C115.77331406 560.40078628 116.46828544 567.30453495 117.2081213 574.38226891 C117.31422726 575.40273811 117.31422726 575.40273811 117.42247677 576.44382286 C117.90817123 581.05460746 118.44837771 585.65643042 119.0206213 590.25726891 C119.19972042 591.70480553 119.19972042 591.70480553 119.38243771 593.18158531 C121.0953271 605.74842727 126.08029603 614.48359229 134.0206213 624.25726891 C134.77303097 625.1856356 134.77303097 625.1856356 135.54064083 626.13275719 C138.93179146 630.26705394 142.44180582 634.28497744 146.0206213 638.25726891 C146.47888302 638.76660973 146.93714474 639.27595055 147.40929317 639.80072594 C149.52672079 642.14787447 151.65586949 644.48370582 153.7940588 646.81195641 C155.7226205 648.92999084 157.59781646 651.07956608 159.4581213 653.25726891 C162.3334 656.57437531 165.40097628 659.67228077 168.5206213 662.75726891 C179.99112092 674.162035 179.99112092 674.162035 182.69933224 679.67377281 C186.02378802 686.54723275 186.02378802 686.54723275 191.88188839 691.08048058 C196.3193195 692.15449875 200.72990328 692.12401952 205.26866817 691.9176693 C207.65601729 691.81934072 210.0151201 691.85575036 212.4034338 691.90765953 C220.71715977 691.92240105 220.71715977 691.92240105 227.66417599 687.76849937 C230.91529659 682.88250703 230.91529659 682.88250703 232.0206213 677.25726891 C232.81590119 677.26486331 233.61118107 677.27245772 234.43056035 677.28028226 C281.57746258 677.72795665 328.72413338 678.07105432 375.87273552 678.27857549 C381.5353156 678.30358928 387.19789139 678.32947576 392.86046505 678.35590172 C394.55142204 678.36377103 394.55142204 678.36377103 396.27653977 678.37179932 C414.52410711 678.45879984 432.77041282 678.61647355 451.01723197 678.80032483 C469.74377666 678.98743437 488.46966121 679.09845989 507.19710231 679.1390388 C518.75152287 679.166468 530.30237776 679.25304274 541.85570034 679.41559824 C549.78112373 679.52142067 557.70470748 679.55325159 565.63078585 679.52729645 C570.20371766 679.51449535 574.77042892 679.53391851 579.34224987 679.6413784 C596.82119961 680.81355554 596.82119961 680.81355554 612.63360786 675.28678226 C616.76737966 670.60294542 619.1499955 665.47179819 621.16221666 659.60418367 C622.34234154 656.37767209 623.99432283 653.81114036 625.9112463 650.96820641 C626.46699337 650.08366783 627.02274044 649.19912926 627.59532833 648.28778648 C628.14817501 647.41146568 628.70102169 646.53514488 629.2706213 645.63226891 C634.60439952 637.13698709 639.89474591 628.61654735 645.1456213 620.06976891 C651.5574688 609.63401421 657.99170854 599.21251556 664.44396114 588.8017025 C667.13770684 584.4545025 669.82904808 580.10581421 672.5206213 575.75726891 C675.7343279 570.56515723 678.94842533 565.37329112 682.16515255 560.18305016 C687.41343549 551.71286403 692.65076469 543.23621698 697.86705685 534.74628258 C704.32418095 524.23723344 710.82241231 513.75580879 717.37120724 503.30365562 C723.36159903 493.73317928 729.27438928 484.11562019 735.1846838 474.49555016 C739.13817216 468.06153812 743.11305654 461.6409447 747.09191036 455.22260094 C750.69407812 449.40855642 754.28018734 443.58481644 757.86046505 437.75726891 C764.31945985 427.24435606 770.8201453 416.75942704 777.37120724 406.30365562 C782.6753073 397.8296249 787.92188512 389.32094057 793.1522131 380.80121422 C796.35885262 375.5786228 799.57302568 370.36123788 802.81359005 365.15961266 C803.70570187 363.72621544 803.70570187 363.72621544 804.61583614 362.2638607 C805.7246396 360.48400573 806.83549626 358.70542745 807.94884396 356.92841148 C810.5273405 352.78659106 812.93548564 348.66950135 815.0206213 344.25726891 C812.23345124 340.98915798 809.62166702 338.6076686 805.34829807 337.67241287 C802.07926961 337.44175469 798.85184945 337.38945851 795.57457638 337.40155602 C793.71464046 337.37373795 793.71464046 337.37373795 791.81713009 337.34535789 C788.42978815 337.30246309 785.04465353 337.28667843 781.65718961 337.28665805 C778.81963285 337.28391652 775.98228195 337.26428214 773.14479464 337.24536425 C766.44206508 337.20177043 759.7398264 337.19147793 753.03697872 337.20038414 C746.14860493 337.20881352 739.26270735 337.15439846 732.37490255 337.06983942 C726.43988637 336.99962581 720.50566813 336.97248183 714.57024211 336.97827345 C711.03456807 336.98109032 707.50096375 336.96751206 703.9656992 336.91084671 C682.53921752 336.22738644 682.53921752 336.22738644 667.0206213 349.25726891 Z M191.0206213 691.25726891 C191.6599963 694.14476891 192.2993713 697.03226891 192.9581213 700.00726891 C193.15784542 700.91057945 193.35756954 701.81389 193.56334591 702.74457359 C193.72327023 703.4654818 193.88319454 704.18639 194.04796505 704.92914391 C194.21030636 705.6622982 194.37264767 706.3954525 194.53990841 707.15082359 C195.00590746 709.19279402 195.51263807 711.22533599 196.0206213 713.25726891 C203.2806213 713.25726891 210.5406213 713.25726891 218.0206213 713.25726891 C221.36825464 703.68841435 221.36825464 703.68841435 224.0206213 691.25726891 C213.1306213 691.25726891 202.2406213 691.25726891 191.0206213 691.25726891 Z " fill="#FEFEFE" transform="translate(108.97937870025635,-0.25726890563964844)"/>
</svg>
